{"title":"Cyber.Stalker.2012.DVDrip XViD juggs","uid":8280850,"size":743069487,"categoryP":"video","categoryS":"movies","magnet":"?xt=urn:btih:21d5ac12cc45b5f163043e0853bfa8ed78f7b6b6&amp;dn=Cyber.Stalker.2012.DVDrip+XViD+juggs&amp;tr=udp%3A%2F%2Ftracker.openbittorrent.com%3A80&amp;tr=udp%3A%2F%2Fopen.demonii.com%3A1337&amp;tr=udp%3A%2F%2Ftracker.coppersurfer.tk%3A6969&amp;tr=udp%3A%2F%2Fexodus.desync.com%3A6969","seeders":1,"leechers":0,"uploader":"juggs99","files":3,"time":1363827613,"description":" &lt;a href=&quot;http://www.imdb.com/title/tt2172001/&quot; rel=&quot;nofollow&quot; target=&quot;_NEW&quot;&gt;http://www.imdb.com/title/tt2172001/&lt;/a&gt;\n\nSource : DVD BabyGirl21 (Thanks)\n\n\nFormat : AVI\nFormat/Info : Audio Video Interleave\nFile size : 700 MiB\nDuration : 1h 32mn\nOverall bit rate : 1 063 Kbps\nWriting library : VirtualDub build 32842/release\n\nVideo\nID : 0\nFormat : MPEG-4 Visual\nFormat profile : Advanced Simple@L5\nFormat settings, BVOP : 4\nFormat settings, QPel : No\nFormat settings, GMC : No warppoints\nFormat settings, Matrix : Default (H.263)\nMuxing mode : Packed bitstream\nCodec ID : XVID\nCodec ID/Hint : XviD\nDuration : 1h 32mn\nBit rate : 926 Kbps\nWidth : 640 pixels\nHeight : 352 pixels\nDisplay aspect ratio : 16:9\nFrame rate : 23.976 fps\nColor space : YUV\nChroma subsampling : 4:2:0\nBit depth : 8 bits\nScan type : Progressive\nCompression mode : Lossy\nBits/(Pixel*Frame) : 0.171\nStream size : 609 MiB (87%)\nWriting library : XviD 64\n\nAudio\nID : 1\nFormat : MPEG Audio\nFormat version : Version 1\nFormat profile : Layer 3\nCodec ID : 55\nCodec ID/Hint : MP3\nDuration : 1h 32mn\nBit rate mode : Constant\nBit rate : 128 Kbps\nChannel(s) : 2 channels\nSampling rate : 44.1 KHz\nCompression mode : Lossy\nStream size : 84.3 MiB (12%)\nAlignment : Split accross interleaves\nInterleave, duration : 42 ms (1.00 video frame)\nInterleave, preload duration : 500 ms\nWriting library : LAME3.99r\nEncoding settings : -m s -V 4 -q 3 -lowpass 17 -b 128\n\n\nPlot\nThirteen years ago, Aiden Ashley's world was torn apart after an online stalker followed her into the real world and broke into the Ashley family home to claim the object of his desire. The resulting night of terror ended with the murders of both Aiden's mother and father. The stalker escaped the scene without Aiden seeing his face; he is gone without a trace, an unknown man, a murderer now watching Aiden's every move. To escape this danger Aiden spends the next 13 years offline, in therapy and secluded anonymity. Who should Aiden trust in a web of deception where no one may be who they seem? There is nowhere for Aiden to hide when someone wants to love her to death.\n\n &lt;a href=&quot;\nhttp://www.shotpix.com/images/83879788163491490569.png&quot; rel=&quot;nofollow&quot; target=&quot;_NEW&quot;&gt;\nhttp://www.shotpix.com/images/83879788163491490569.png&lt;/a&gt; &lt;a href=&quot;\nhttp://www.shotpix.com/images/86204099912742248218.png&quot; rel=&quot;nofollow&quot; target=&quot;_NEW&quot;&gt;\nhttp://www.shotpix.com/images/86204099912742248218.png&lt;/a&gt; &lt;a href=&quot;\nhttp://www.shotpix.com/images/15857163114850320104.png&quot; rel=&quot;nofollow&quot; target=&quot;_NEW&quot;&gt;\nhttp://www.shotpix.com/images/15857163114850320104.png&lt;/a&gt;","torrent":{"xt":"urn:btih:21d5ac12cc45b5f163043e0853bfa8ed78f7b6b6","amp;dn":"Cyber.Stalker.2012.DVDrip+XViD+juggs","amp;tr":["udp%3A%2F%2Ftracker.openbittorrent.com%3A80","udp%3A%2F%2Fopen.demonii.com%3A1337","udp%3A%2F%2Ftracker.coppersurfer.tk%3A6969","udp%3A%2F%2Fexodus.desync.com%3A6969"],"infoHash":"21d5ac12cc45b5f163043e0853bfa8ed78f7b6b6","infoHashBuffer":{"type":"Buffer","data":[33,213,172,18,204,69,181,241,99,4,62,8,83,191,168,237,120,247,182,182]},"announce":[],"urlList":[]}}